<svg xmlns="http://www.w3.org/2000/svg" xmlns:xlink="http://www.w3.org/1999/xlink" x="0px" y="0px" viewBox="0 0 3710 3710" style="enable-background:new 0 0 3710 3710;" xml:space="preserve"> <g id="Background"> <g> <g> <rect style="fill:#FFFFFF;" width="3710" height="3710"></rect> </g> </g> </g> <g id="Illustration"> <g> <path style="fill:#F4F7FA;" d="M1818.12,365.306C1089.409,343.177,458.191,886.932,362.825,1600.408 c-104.269,780.088,469.615,1481.98,1175.755,1594.398c878.32,139.83,1730.239-669.102,1653.745-1546.672 C3134.694,986.962,2558.87,387.8,1818.12,365.306z"></path> <g> <path style="fill:#97A6B7;" d="M2179.099,701.722L473.609,597.715c-39.28-2.021-74.64,43.166-74.64,81.108v2315.105 c0,52.62,50.988,63.211,90.268,58.982l1689.862-181.931c30.868-3.323,55.789-33.101,55.789-66.523V765.11 C2234.888,731.688,2209.968,703.311,2179.099,701.722z"></path> <path style="fill:#D8DEE8;" d="M2207.15,683.333L498.291,594.714c-39.28-2.037-71.271,27.303-71.271,65.541v2333.193 c0,38.238,31.991,65.766,71.271,61.504l1708.859-185.414c30.868-3.349,55.789-33.36,55.789-67.043V747.216 C2262.938,713.533,2238.018,684.934,2207.15,683.333z"></path> <path style="opacity:0.74;fill:#FFFFFF;" d="M498.291,3023.311c-21.188,2.255-38.468-12.67-38.468-33.275V661.809 c0-20.606,17.28-36.51,38.468-35.454l1708.859,85.095c16.687,0.831,30.232,16.332,30.232,34.556v2059.147 c0,18.224-13.546,34.493-30.232,36.269L498.291,3023.311z"></path> <polygon style="fill:#FFFFFF;" points="2097.011,2786.202 635.416,2934.654 635.416,786.664 2097.011,844.693 "></polygon> <path style="opacity:0.3;fill:#97A6B7;" d="M1512.418,855.205l-584.133,7.703l13.102-138.87 c0.989-18.044,13.363-32.857,29.654-35.495l98.926-16.026c11.647-1.887,21.678-10.002,26.768-21.654l10.727-24.559 l258.752,16.843L1512.418,855.205z"></path> <linearGradient id="SVGID_1_" gradientUnits="userSpaceOnUse" x1="928.2847" y1="640.261" x2="1846.5873" y2="640.261"> <stop offset="0" style="stop-color:#444B8C"></stop> <stop offset="0.9964" style="stop-color:#26264F"></stop> </linearGradient> <path style="fill:url(#SVGID_1_);" d="M1824.349,765.112c-2.771-15.712-14.712-26.74-29.758-27.45l-93.338-4.41 c-42.365-2.002-73.422-38.284-71.867-84.238l3.602-106.493c0.667-19.694-12.675-35.475-31.012-36.63l-30.666-1.931 c-23.384-1.473-38.954-23.204-35.674-48.332c5.732-43.914-22.809-81.811-64.175-84.783 c-41.691-2.995-80.601,30.581-86.807,75.058c-0.923,6.609-3.04,13.139-6.486,18.967c-9.633,16.291-26.513,25.259-43.044,24.218 l-31.634-1.992c-19.167-1.207-37.382,12.975-42.237,32.93l-26.303,108.096c-11.375,46.75-54.285,80.532-99.848,78.38 l-102.388-4.838c-16.769-0.792-33.226,9.511-40.948,25.665l-61.699,129.06c-5.053,10.57,1.169,21.988,12.181,22.374 l887.921,31.09c9.719,0.34,17.964-9.875,16.175-20.026L1824.349,765.112z M1458.873,463.015 c-12.23-0.799-20.718-12.008-18.939-25.034c1.779-13.026,13.146-22.904,25.371-22.065c12.204,0.838,20.644,12.043,18.87,25.029 C1482.402,453.931,1471.082,463.812,1458.873,463.015z"></path> <path style="fill:#97A6B7;" d="M1829.609,767.999c-2.771-15.711-14.712-26.739-29.758-27.45l-93.338-4.41 c-42.365-2.002-73.422-38.284-71.867-84.238l3.602-106.492c0.666-19.695-12.676-35.475-31.012-36.63l-30.666-1.931 c-23.385-1.473-38.954-23.203-35.674-48.332c5.732-43.915-22.81-81.811-64.176-84.783c-41.69-2.995-80.6,30.581-86.808,75.057 c-0.922,6.609-3.04,13.14-6.486,18.967c-9.633,16.29-26.513,25.259-43.044,24.218l-31.633-1.992 c-19.168-1.207-37.382,12.975-42.237,32.93l-26.302,108.096c-11.375,46.75-54.285,80.532-99.849,78.38l-102.388-4.838 c-16.769-0.792-33.225,9.511-40.948,25.665l-61.699,129.06c-5.053,10.57,1.169,21.988,12.181,22.374l887.921,31.09 c9.719,0.34,17.965-9.875,16.175-20.026L1829.609,767.999z M1464.132,465.901c-12.23-0.799-20.718-12.008-18.939-25.034 c1.779-13.026,13.146-22.904,25.371-22.065c12.204,0.838,20.644,12.043,18.871,25.029 C1487.661,456.818,1476.342,466.699,1464.132,465.901z"></path> <g> <path style="opacity:0.5;fill:#FFFFFF;" d="M1677.652,827.307c-79.204-51.543-139.977-14.997-189.34-73.131 c-52.844-62.233-17.203-144.162-71.879-182.823c-35.004-24.751-66.23-2.92-106.942-9.621 c-14.906-2.452-30.816-8.7-47.347-20.875l-21.936,90.153c-11.376,46.751-54.285,80.531-99.848,78.38l-102.389-4.837 c-16.769-0.792-33.225,9.512-40.948,25.665l-61.699,129.061c-5.053,10.569,1.169,21.988,12.182,22.372l806.937,28.255 C1734.118,875.876,1708.869,847.621,1677.652,827.307z"></path> </g> <g> <g> <path style="fill:#D8DEE8;" d="M958.095,1817.98v123.194l-121.72,4.332v-124.371L958.095,1817.98z M972.049,1803.66 l-149.628,3.879v152.426l149.628-5.325V1803.66z"></path> <polygon style="fill:#D8DEE8;" points="1965.456,1919.288 1027.146,1952.68 1027.146,1802.231 1965.456,1777.903 "></polygon> </g> <g> <path style="fill:#D8DEE8;" d="M958.095,2038.17v123.18l-121.72,6.045V2043.04L958.095,2038.17z M972.049,2023.647 l-149.628,5.985v152.426l149.628-7.432V2023.647z"></path> <polygon style="fill:#D8DEE8;" points="1965.456,2125.294 1027.146,2171.892 1027.146,2021.443 1965.456,1983.909 "></polygon> </g> <g> <path style="fill:#D8DEE8;" d="M958.095,2258.364v123.16l-121.72,7.757v-124.335L958.095,2258.364z M972.049,2243.635 l-149.628,8.091v152.427l149.628-9.537V2243.635z"></path> <polygon style="fill:#D8DEE8;" points="1965.456,2331.299 1027.146,2391.104 1027.146,2240.655 1965.456,2189.914 "></polygon> </g> <g> <path style="fill:#D8DEE8;" d="M958.095,2478.559v123.134l-121.72,9.472v-124.31L958.095,2478.559z M972.049,2463.622 l-149.628,10.198v152.426l149.628-11.644V2463.622z"></path> <polygon style="fill:#D8DEE8;" points="1965.456,2537.304 1027.146,2610.316 1027.146,2459.867 1965.456,2395.919 "></polygon> </g> <polygon style="fill:#D8DEE8;" points="1417.425,1656.122 822.422,1666.22 822.422,954.827 1417.425,971.554 "></polygon> <polygon style="fill:#D8DEE8;" points="1965.456,1073.87 1510.872,1063.789 1510.872,974.181 1965.456,986.961 "></polygon> <polygon style="fill:#D8DEE8;" points="1965.456,1267 1510.872,1262.917 1510.872,1218.114 1965.456,1223.545 "></polygon> <polygon style="fill:#D8DEE8;" points="1965.456,1338.619 1510.872,1336.761 1510.872,1291.957 1965.456,1295.164 "></polygon> <polygon style="fill:#D8DEE8;" points="1965.456,1410.238 1510.872,1410.604 1510.872,1365.8 1965.456,1366.783 "></polygon> </g> </g> <g> <g> <path style="fill:#26264F;" d="M2762.713,2746.609c19.292,15.458,51.072,29.817,101.663,27.225 c103.258-5.29,182.91-163.688,61.304-233.794c-122.951-70.883-197.972,25.806-197.972,25.806v-292.744l-245.659,7.019 c-26.909,0.769-43.059,33.79-27.723,57.142c78.366,119.353-11.935,236.047-84.824,243.498 c-84.626,8.65-169.883-37.049-161.738-141.276c3.528-45.121,15.447-81.517,27.819-108.256 c11.327-24.491-5.377-52.32-30.784-51.603l-291.936,8.233v259.959c0,19.837,19.938,32.354,36.688,22.584 c24.187-14.104,60.522-27.303,109.642-24.381c98.578,5.861,154.572,89.718,118.897,161.105 c-68.787,137.637-159.408,106.063-210.704,71.433c-16.795-11.337-39.676,2.681-39.676,24.158v299.568l808.214-51.175v-288.711 C2735.926,2747.323,2751.817,2737.88,2762.713,2746.609z"></path> <path style="fill:#26264F;" d="M1138.543,957.227c48.594-26.281,116.208-42.303,176.547,87.825 c86.532,186.618-76.802,221.595-182.559,172.402c-26.931-12.53-57.183,7.236-57.183,37.164v247.92l260.749,1.414 c25.511,0.138,43.27,26.829,33.321,50.83c-11.039,26.63-21.625,62.999-23.6,107.152 c-4.385,98.143,74.298,172.187,182.718,156.493c107.436-15.55,133.074-109.986,120.261-155.925 c-6.697-24.005-32.403-65.747-55.489-100.23c-16.146-24.115,0.508-56.922,28.756-56.769l284.532,1.543l14.855-258.479 c0-19.337-33.781-47.762-50.689-40.277c-53.91,23.864-153.187,54.91-183.568-22.092 c-42.67-108.141-8.523-229.613,67.947-236.238c41.848-3.622,83.545,17.656,112.541,37.486 c16.943,11.586,38.915-1.003,38.915-21.926l14.855-248.469l-14.855-14.855l-258.171-8.678 c-31.416-1.059-49.279,34.606-31.742,62.358c16.296,25.785,30.4,56.892,32.115,88.975 c4.271,79.956-55.684,158.165-133.22,160.809c-78.048,2.659-178.529-58.928-174.145-148.661 c2.072-42.401,23.718-85.086,45.93-118.259c17.793-26.569-1.302-63.832-33.325-64.926l-278.69-9.532v241.604 C1075.349,937.957,1111.044,972.099,1138.543,957.227z"></path> <path style="fill:#26264F;" d="M1967.388,2778.558c51.296,34.63,141.917,66.204,210.704-71.433 c35.675-71.387-20.319-155.244-118.897-161.105c-49.121-2.922-85.456,10.277-109.642,24.381 c-16.75,9.77-36.688-2.747-36.688-22.584v-259.959l-276.35,7.794c-27.789,0.784-45.14-29.998-31.208-55.333 c95.902-174.388-59.209-244.946-98.372-241.322c-43.331,4.01-178.664,30.876-178.664,134.272 c0,46.839,13.508,86.136,28.268,115.074c12.807,25.105-4.599,55.903-32.584,56.693l-249.996,7.057v257.507 c0,29.101-28.747,50.532-55.668,41.209c-38.52-13.341-93.162-25.898-151.006-18.77 c-109.99,13.552-137.645,169.616-73.219,245.635c47.357,55.877,134.564,9.44,200.255-26.589 c27.196-14.915,58.915,4.068,58.915,34.664v311.907l14.855,14.855l859.621-70.226v-299.568 C1927.712,2781.238,1950.593,2767.22,1967.388,2778.558z"></path> <path style="fill:#26264F;" d="M1945.645,1781.114c28.526-19.187,72.766-35.195,133.126-18.444 c114.734,31.845,108.617,142.383,86.156,196.869c-18.951,45.974-131.418,101.466-211.33,41.611 c-16.956-12.698-40.734-0.03-40.734,22.04v264.668l291.936-8.233c25.406-0.717,42.111,27.112,30.784,51.603 c-12.372,26.739-24.291,63.135-27.819,108.256c-8.145,104.228,77.112,149.927,161.738,141.276 c72.889-7.451,163.19-124.145,84.824-243.498c-15.337-23.352,0.813-56.373,27.723-57.142l245.659-7.019l14.855-298.248 L2727.708,1960c-75.526,98.745-186.868,75.256-230.453-22.284c-43.751-97.917-7.94-188.043,90.942-197.069 c50.579-4.615,84.362,14.6,105.232,34.29c10.917,10.301,27.872,2.003,27.872-13.741v-252.712l-241.33-1.341 c-26.771-0.149-42.662-33.617-25.969-56.039c14.483-19.449,25.988-43.971,27.363-73.545 c3.974-85.494-55.794-167.868-135.977-177.971c-80.755-10.172-166.162,70.531-153.923,153.038 c5.799,39.094,20.489,76.301,34.315,104.587c11.526,23.581-4.495,51.542-29.45,51.407l-289.733-1.572v251.651 C1906.596,1779.814,1928.696,1792.511,1945.645,1781.114z"></path> <path style="fill:#26264F;" d="M1135.52,1781.938c20.275-10.9,44.9-20.848,72.696-25.666 c153.859-26.678,133.218,167.566,54.012,246.412c-40.524,40.338-88.458,27.864-125.852,5.804 c-27.495-16.222-62.418,3.849-62.418,36.411v267.193l249.996-7.057c27.985-0.79,45.391-31.588,32.584-56.693 c-14.76-28.938-28.268-68.235-28.268-115.074c0-103.396,135.333-130.261,178.664-134.272 c39.162-3.623,194.273,66.934,98.372,241.322c-13.932,25.335,3.419,56.116,31.208,55.333l276.35-7.794V2023.19 c0-22.07,23.777-34.738,40.734-22.04c79.912,59.854,192.38,4.363,211.33-41.611c22.461-54.486,28.578-165.024-86.156-196.869 c-60.361-16.751-104.6-0.743-133.126,18.444c-16.949,11.397-39.049-1.3-39.049-22.417v-251.651l-284.532-1.543 c-28.248-0.153-44.902,32.654-28.756,56.769c23.086,34.483,48.792,76.225,55.489,100.23 c12.813,45.939-12.825,140.375-120.261,155.925c-108.42,15.694-187.103-58.35-182.718-156.493 c1.975-44.153,12.561-80.522,23.6-107.152c9.949-24.001-7.81-50.692-33.321-50.83l-260.749-1.414v243.039 C1075.349,1776.989,1108.154,1796.651,1135.52,1781.938z"></path> </g> <linearGradient id="SVGID_00000138544279178214997750000015503923812182913169_" gradientUnits="userSpaceOnUse" x1="3620.9854" y1="486.0147" x2="962.2172" y2="5105.8535"> <stop offset="0" style="stop-color:#FFC444"></stop> <stop offset="0.9964" style="stop-color:#F36F56"></stop> </linearGradient> <path style="fill:url(#SVGID_00000138544279178214997750000015503923812182913169_);" d="M2777.567,2761.463 c19.292,15.458,51.072,29.817,101.663,27.225c103.258-5.29,182.91-163.688,61.304-233.794 c-122.951-70.883-197.972,25.806-197.972,25.806v-292.743l-245.659,7.018c-26.909,0.769-43.059,33.79-27.723,57.142 c78.367,119.353-11.935,236.047-84.824,243.498c-84.625,8.65-169.883-37.049-161.738-141.276 c3.528-45.121,15.447-81.517,27.819-108.256c11.327-24.491-5.377-52.32-30.784-51.603l-291.936,8.233v259.959 c0,19.837,19.938,32.354,36.688,22.584c24.187-14.104,60.522-27.303,109.642-24.381c98.578,5.861,154.572,89.718,118.897,161.105 c-68.787,137.637-159.408,106.063-210.704,71.433c-16.795-11.337-39.676,2.681-39.676,24.158v299.567l808.214-51.175v-288.711 C2750.781,2762.178,2766.672,2752.735,2777.567,2761.463z"></path> <path style="opacity:0.3;fill:#FFFFFF;" d="M1979.558,3075.944v-238.22c31.486,17.57,62.739,25.63,93.145,24.03 c42.602-2.245,103.421-25.424,152.055-122.911c20.357-40.808,20.198-87.249-0.431-127.526 c-26.508-51.751-81.318-85.088-146.86-89.095c-8.632-0.531-17.279-0.634-25.694-0.316c-31.156,1.179-60.345,8.033-87.019,20.427 v-201.789l251.937-7.528c-16.706,37.008-26.858,77.173-30.166,119.393c-3.918,50.066,9.561,93.868,38.918,126.601 c34.063,37.977,87.69,58.229,146.961,55.657c4.635-0.201,9.333-0.546,13.964-1.026c52.362-5.44,105.012-48.556,131.166-107.199 c27.762-62.248,21.479-132.49-17.197-193.585l207.633-6.28v359.202l60.492-81.363c2.45-2.97,30.732-35.991,78.511-37.959 c24.36-1.003,50.24,6.275,76.916,21.602c35.908,20.635,50.459,50.111,42.155,85.318c-8.635,36.626-43.423,75.82-86.812,77.97 c-33.874,1.678-61.724-5.392-80.488-20.467c-9.045-7.265-19.831-10.816-31.211-10.271c-28.268,1.355-51.318,27.55-51.318,58.388 v251.54L1979.558,3075.944z"></path> <linearGradient id="SVGID_00000127006105459186538180000004914070203685364121_" gradientUnits="userSpaceOnUse" x1="1810.9008" y1="675.0219" x2="1528.6604" y2="1068.6731"> <stop offset="0" style="stop-color:#FF9085"></stop> <stop offset="1" style="stop-color:#FB6FBB"></stop> </linearGradient> <path style="fill:url(#SVGID_00000127006105459186538180000004914070203685364121_);" d="M1151.688,958.495 c48.594-26.281,117.918-28.717,178.258,101.411c86.532,186.618-76.802,221.595-182.559,172.402 c-26.931-12.53-57.183,7.236-57.183,37.164v247.92l260.749,1.414c25.511,0.138,43.27,26.829,33.321,50.83 c-11.039,26.63-21.625,62.999-23.6,107.152c-4.385,98.143,74.298,172.187,182.718,156.493 c107.436-15.55,133.074-109.986,120.261-155.925c-6.697-24.005-32.403-65.747-55.489-100.23 c-16.146-24.115,0.508-56.922,28.756-56.769l284.532,1.543v-273.333c0-19.337-18.927-32.907-35.834-25.423 c-53.91,23.864-153.187,54.91-183.568-22.092c-42.67-108.141-8.523-229.612,67.947-236.238 c41.848-3.622,83.545,17.656,112.541,37.486c16.943,11.586,38.915-1.003,38.915-21.926V717.053l-258.171-8.678 c-31.416-1.059-49.279,34.606-31.742,62.358c16.296,25.785,30.4,56.892,32.115,88.975 c4.271,79.957-55.684,158.165-133.22,160.809c-78.048,2.659-178.529-58.928-174.145-148.661 c2.072-42.4,23.718-85.086,45.93-118.259c17.793-26.569-1.302-63.832-33.325-64.926l-278.69-9.532v241.604 C1090.203,952.812,1124.189,973.367,1151.688,958.495z"></path> <path style="opacity:0.3;fill:#FFFFFF;" d="M1516.275,1795.753c-35.497,0.222-66.854-12.253-88.243-35.157 c-19.803-21.21-29.948-50.353-28.534-82.033c1.455-32.548,8.353-63.933,20.487-93.257c9.676-23.388,7.257-50.103-6.482-71.499 c-13.914-21.671-37.287-34.725-62.552-34.905l-220.995-1.569v-207.235c0-1.16,1.093-1.332,1.105-1.332 c32.136,14.856,68.772,23.24,103.471,23.755c0.004,0,0.012,0,0.015,0c62.381,0.923,113.032-22.758,139.177-64.897 c20.027-32.279,34.762-90.325-8.643-184.109c-41.886-90.489-95.307-137.493-158.927-139.47 c-24.481-0.761-49.329,5.547-73.861,18.769c-0.624,0.335-0.93,0.326-1.031,0.323c-0.597-0.018-1.155-0.456-1.252-0.628 c0,0-0.054-0.159-0.054-0.568V720.776l239.169,7.776c0.391,0.015,0.532,0.071,0.532,0.071c0.236,0.141,0.573,0.801,0.551,1.081 c-0.008,0.031-0.072,0.2-0.255,0.473c-32.795,48.872-50.521,95.473-52.624,138.414c-2.103,42.91,13.252,83.789,44.343,118.138 c39.708,43.881,101.023,71.974,159.877,73.438c3.735,0.093,7.48,0.074,11.134-0.059c95.796-3.424,174.333-97.464,168.794-201.312 c-1.854-34.772-14.758-71.371-38.384-108.824c-0.849-1.348-0.23-2.036-0.03-2.205c0.004,0,0.007,0.004,0.015,0.004 c0.048,0.002,0.196-0.016,0.434-0.006l220.764,7.049v203.446c-35.001-20.882-69.035-31.98-101.39-32.981 c-5.734-0.177-11.468-0.025-17.043,0.449c-37.868,3.214-70.776,25.724-92.6,63.423c-34.495,59.584-36.935,148.525-6.203,226.275 c18.478,46.747,57.995,72.912,111.111,73.728c36.806,0.565,75.841-11.096,106.126-23.168v216.704l-247.356-1.757 c-27.3-0.194-52.175,15.219-64.869,40.252c-12.701,25.037-10.873,55.096,4.76,78.4c40.601,60.524,48.79,83.259,50.337,88.784 c3.155,11.306,2.405,36.796-12.63,60.694c-15.646,24.872-41.25,40.019-76.167,45.015 C1530.892,1795.143,1523.466,1795.708,1516.275,1795.753z"></path> <linearGradient id="SVGID_00000088834227123603384460000007864065684150785970_" gradientUnits="userSpaceOnUse" x1="1653.4305" y1="2510.2927" x2="580.3912" y2="3947.23"> <stop offset="0.0036" style="stop-color:#E38DDD"></stop> <stop offset="1" style="stop-color:#9571F6"></stop> </linearGradient> <path style="fill:url(#SVGID_00000088834227123603384460000007864065684150785970_);" d="M1982.243,2793.412 c51.296,34.63,141.917,66.204,210.704-71.433c35.675-71.387-20.319-155.244-118.897-161.105 c-49.121-2.922-85.456,10.277-109.642,24.381c-16.75,9.77-36.688-2.747-36.688-22.584v-259.959l-276.35,7.794 c-27.789,0.784-45.14-29.998-31.208-55.333c95.902-174.388-59.209-244.946-98.372-241.322 c-43.331,4.01-178.664,30.875-178.664,134.272c0,46.839,13.508,86.136,28.268,115.074c12.807,25.105-4.599,55.903-32.584,56.693 l-249.995,7.056v257.507c0,29.101-28.747,50.533-55.668,41.209c-38.52-13.341-93.162-25.898-151.006-18.77 c-109.99,13.552-137.645,169.616-73.219,245.635c47.357,55.877,134.564,9.44,200.255-26.589 c27.196-14.915,58.915,4.068,58.915,34.664v311.907l874.475-55.371V2817.57 C1942.567,2796.093,1965.448,2782.075,1982.243,2793.412z"></path> <path style="opacity:0.3;fill:#FFFFFF;" d="M1107.921,3129.673v-271.076c0-45.242-36.217-80.347-80.887-78.25 c-12.391,0.582-24.383,3.996-35.65,10.151c-34.981,19.118-83.048,45.39-118.222,47.114c-18.785,0.921-27.064-5.746-32.684-12.39 c-26.516-31.361-32.828-85.293-14.98-128.124c8.487-20.366,25.789-45.521,60.002-49.791c6.346-0.794,12.891-1.333,19.456-1.604 c44.827-1.845,86.694,8.96,113.877,18.326c9.346,3.22,19.094,4.64,28.972,4.222c44.605-1.893,80.767-40.174,80.767-85.346 v-216.805l210.235-6.287c26.655-0.797,50.781-15.385,64.563-38.995c13.925-23.856,14.874-52.541,2.538-76.771 c-15.827-31.082-23.858-63.638-23.858-96.743c0-77.983,135.433-93.248,142.338-93.97c11.536-0.047,55.951,15.767,77.282,53.622 c19.035,33.777,14.155,77.237-14.53,129.299c-13.487,24.477-13.495,53.304-0.026,77.072 c13.438,23.714,37.473,37.379,64.256,36.579l239.192-7.147v221.375c0,17.947,6.74,34.444,18.967,46.453 c11.826,11.613,27.319,17.623,43.615,16.935c9.741-0.412,19.5-3.332,28.222-8.438c20.529-12.008,44.226-18.64,70.409-19.719 c6.138-0.253,12.484-0.197,18.855,0.172c40.495,2.34,74.832,21.791,89.714,50.739c6.503,12.651,11.906,32.422,0.703,54.79 c-25.509,50.956-55.225,77.665-88.346,79.296c-26.318,1.296-52.33-12.3-69.536-23.952c-10.417-7.053-22.542-10.469-35.07-9.873 c-34.495,1.641-62.635,32.554-62.635,68.904v261.07L1107.921,3129.673z"></path> <linearGradient id="SVGID_00000160887567565358997660000005172758032181016479_" gradientUnits="userSpaceOnUse" x1="3052.9287" y1="898.6424" x2="2205.5569" y2="2081.4319"> <stop offset="0" style="stop-color:#AA80F9"></stop> <stop offset="0.9964" style="stop-color:#6165D7"></stop> </linearGradient> <path style="fill:url(#SVGID_00000160887567565358997660000005172758032181016479_);" d="M1960.499,1795.969 c28.526-19.187,72.766-35.195,133.126-18.444c114.734,31.845,108.617,142.383,86.156,196.869 c-18.951,45.974-131.418,101.465-211.331,41.611c-16.956-12.698-40.733-0.03-40.733,22.04v264.668l291.936-8.233 c25.406-0.717,42.111,27.112,30.784,51.603c-12.372,26.739-24.291,63.135-27.819,108.256 c-8.145,104.228,77.112,149.927,161.738,141.276c72.889-7.451,163.191-124.145,84.824-243.498 c-15.337-23.352,0.813-56.373,27.723-57.142l245.659-7.018v-313.103c-75.526,98.745-186.868,75.256-230.453-22.284 c-43.751-97.917-7.94-188.043,90.942-197.069c50.579-4.615,84.362,14.6,105.232,34.29c10.917,10.301,27.872,2.003,27.872-13.741 v-252.712l-241.33-1.341c-26.771-0.149-42.662-33.617-25.969-56.039c14.483-19.449,25.988-43.971,27.363-73.545 c3.974-85.494-55.794-167.868-135.977-177.971c-80.755-10.172-166.162,70.531-153.923,153.038 c5.798,39.094,20.489,76.301,34.315,104.587c11.526,23.581-4.495,51.542-29.45,51.407l-289.733-1.572v251.65 C1921.451,1794.669,1943.551,1807.366,1960.499,1795.969z"></path> <path style="opacity:0.3;fill:#FFFFFF;" d="M2372.401,2558.28c-38.7,1.547-73.823-10.912-93.874-33.369 c-15.427-17.273-22.135-40.38-19.928-68.653c2.612-33.483,10.714-65.12,24.063-94.02c10.877-23.563,9.719-50.578-3.099-72.312 c-12.903-21.869-35.287-34.551-59.908-33.898l-254.901,6.761v-203.232c26,14.567,55.648,21.869,86.865,21.284 c68.914-1.292,141.136-42.339,161.338-91.431c16.793-40.81,25.768-104.095,0.625-159.596 c-13.904-30.695-44.339-71.191-110.502-89.67c-20.174-5.634-40.201-8.462-59.517-8.392c-30.289,0.11-58.82,7.106-85.054,20.854 v-191.617l252.673,0.947c24.484,0.092,46.628-13.084,59.262-35.227c12.611-22.1,13.415-49.054,2.152-72.146 c-15.815-32.414-26.393-64.457-30.566-92.641c-4.397-29.687,11.712-54.761,21.695-67.05 c22.012-27.092,54.482-43.571,84.709-43.046c2.773,0.048,5.548,0.242,8.25,0.576c59.754,7.429,107.349,70.471,104.22,137.713 c-0.837,17.98-7.486,35.441-19.777,51.92c-16.127,21.615-19.108,50.78-7.77,76.07c11.541,25.742,35.108,41.779,61.466,41.882 l206.718,0.802v178.346c-24.96-14.629-53.54-22.2-84.273-22.105c-5.568,0.017-11.292,0.286-17.008,0.798 c-55.566,4.977-99.38,32.263-123.2,76.892c-25.902,48.528-24.732,112.27,3.201,174.678 c30.013,67.052,88.331,107.861,151.964,106.647c26.282-0.5,51.937-8.091,75.743-22.052v197.323l-211.066,5.676 c-25.715,0.692-49.168,16.583-61.167,41.487c-11.946,24.799-10.295,54.016,4.304,76.207 c33.488,50.906,26.1,93.763,14.002,120.799c-16.698,37.317-49.385,59.857-71.699,62.097 C2379.042,2557.914,2375.698,2558.148,2372.401,2558.28z"></path> <linearGradient id="SVGID_00000176754038942377894330000001626705570381729454_" gradientUnits="userSpaceOnUse" x1="2708.4514" y1="-118.913" x2="-25.7415" y2="4631.9834"> <stop offset="0" style="stop-color:#AA80F9"></stop> <stop offset="0.9964" style="stop-color:#6165D7"></stop> </linearGradient> <path style="fill:url(#SVGID_00000176754038942377894330000001626705570381729454_);" d="M1150.375,1796.793 c20.274-10.9,44.9-20.848,72.696-25.666c153.859-26.678,133.218,167.566,54.012,246.412 c-40.523,40.338-88.458,27.864-125.852,5.803c-27.495-16.222-62.418,3.849-62.418,36.411v267.192l249.995-7.056 c27.985-0.79,45.391-31.588,32.584-56.693c-14.76-28.938-28.268-68.235-28.268-115.074 c0-103.396,135.333-130.261,178.664-134.272c39.162-3.623,194.274,66.934,98.372,241.322 c-13.932,25.335,3.419,56.116,31.208,55.333l276.35-7.794v-264.668c0-22.07,23.777-34.738,40.733-22.04 c79.912,59.854,192.38,4.363,211.331-41.611c22.461-54.486,28.578-165.024-86.156-196.869 c-60.361-16.751-104.6-0.743-133.126,18.444c-16.948,11.397-39.049-1.3-39.049-22.417v-251.65l-284.532-1.543 c-28.248-0.153-44.902,32.654-28.756,56.769c23.086,34.483,48.792,76.225,55.489,100.23 c12.813,45.939-12.826,140.375-120.261,155.925c-108.42,15.694-187.103-58.35-182.718-156.493 c1.975-44.153,12.561-80.522,23.6-107.152c9.949-24.001-7.81-50.692-33.321-50.83l-260.749-1.414v243.039 C1090.203,1791.844,1123.009,1811.506,1150.375,1796.793z"></path> <path style="opacity:0.3;fill:#FFFFFF;" d="M1128.573,2285.544v-226.469c0-0.429,0.058-0.595,0.058-0.595 c0.097-0.159,0.659-0.582,1.248-0.592c0.101-0.002,0.411-0.007,1.047,0.364c29.96,17.616,59.205,26.276,86.928,25.77 c32.146-0.586,61.993-13.759,86.347-38.056c58.697-58.569,87.038-162.573,65.005-232.973c0.897,0.998,1.801,1.985,2.72,2.968 c36.263,38.655,87.571,59.595,144.335,59.049c0.008,0,0.011,0,0.019,0c10.558-0.105,21.376-0.956,32.15-2.535 c72.105-10.557,110.332-49.702,129.715-80.637c23.921-38.166,32.505-87.375,21.904-125.457 c-2.42-8.681-9.671-34.7-57.239-106.575l241.467,0.905v213.043c0,18.165,6.849,34.998,19.278,47.386 c11.789,11.756,27.213,18.15,43.416,18.016c11.763-0.101,23.283-3.729,33.313-10.499c18.867-12.725,40.162-19.254,63.28-19.416 c12.912-0.09,26.571,1.829,40.597,5.695c31.744,8.758,53.252,25.163,63.976,48.761c13.711,30.158,9.067,69.745-1.625,95.635 c-5.134,12.431-44.688,43.275-94.893,44.048c-23.385,0.36-44.061-6.071-61.441-19.123c-10.872-8.163-23.643-12.382-36.945-12.196 c-34.514,0.482-62.671,30.363-62.671,66.61v226.087l-235.828,6.255c51.615-96.039,35.58-164.187,12.824-204.713 c-35.768-63.702-106.6-92.701-143.323-92.193c-1.856,0.026-3.634,0.12-5.303,0.271c-79.352,7.215-214.857,52.188-214.857,174.566 c0,45.244,10.611,89.358,31.515,131.104L1128.573,2285.544z M1131.216,1761.491c-0.05,0-1.26-0.01-1.26-1.245v-202.361 l216.558,0.812c-14.641,36.774-22.982,75.885-24.794,116.311c-1.328,29.684,3.512,58.254,13.964,84.125 c-21.866-19.921-51.387-30.707-85.93-30.591c-10.484,0.035-21.624,1.052-33.101,3.024c-28.586,4.906-57.074,14.88-84.662,29.659 C1131.662,1761.398,1131.402,1761.49,1131.216,1761.491z"></path> <g> <linearGradient id="SVGID_00000142174287906379906420000015162185892299557306_" gradientUnits="userSpaceOnUse" x1="2284.3159" y1="-366.8003" x2="-441.2844" y2="4369.1655"> <stop offset="0" style="stop-color:#FF9085"></stop> <stop offset="1" style="stop-color:#FB6FBB"></stop> </linearGradient> <path style="opacity:0.3;fill:url(#SVGID_00000142174287906379906420000015162185892299557306_);" d="M1702.048,1201.053 c-42.67-108.14-8.524-229.611,67.947-236.238c4.04-0.349,8.076-0.401,12.101-0.31 c-32.934-91.889-81.551-175.641-138.427-251.297c-18.215,10.524-25.534,36.315-12.131,57.523 c16.297,25.786,30.4,56.893,32.115,88.975c4.272,79.957-55.684,158.166-133.22,160.809 c-78.049,2.659-178.528-58.927-174.145-148.66c2.073-42.401,23.718-85.087,45.93-118.261 c17.793-26.569-1.303-63.831-33.325-64.926l-278.69-9.531v241.604c0,32.07,33.984,52.626,61.485,37.754 c48.594-26.281,117.918-28.718,178.257,101.411c86.533,186.618-76.802,221.593-182.56,172.402 c-26.931-12.53-57.182,7.236-57.182,37.162v247.921l260.748,1.414c25.511,0.138,43.271,26.83,33.322,50.83 c-11.039,26.63-21.626,62.999-23.601,107.153c-4.384,98.142,74.298,172.186,182.718,156.493 c107.436-15.549,133.074-109.986,120.262-155.924c-6.698-24.004-32.403-65.747-55.49-100.23 c-16.145-24.116,0.508-56.923,28.756-56.77l121.772,0.661c32.055-84.116,63.012-170.656,67.875-277.243 C1777.346,1255.867,1723.108,1254.431,1702.048,1201.053z"></path> </g> <g style="opacity:0.3;"> <linearGradient id="SVGID_00000086679606882886847520000003675686660953951618_" gradientUnits="userSpaceOnUse" x1="2690.1987" y1="-146.9525" x2="-58.1861" y2="4628.6035"> <stop offset="0" style="stop-color:#AA80F9"></stop> <stop offset="0.9964" style="stop-color:#6165D7"></stop> </linearGradient> <path style="fill:url(#SVGID_00000086679606882886847520000003675686660953951618_);" d="M1692.055,1939.618 c-31.773-172.039,18.638-292.646,66.636-418.599l-121.772-0.661c-28.247-0.153-44.901,32.654-28.756,56.77 c23.087,34.483,48.792,76.226,55.49,100.23c12.813,45.938-12.826,140.376-120.262,155.924 c-108.421,15.694-187.103-58.35-182.718-156.493c1.975-44.154,12.562-80.523,23.601-107.153 c9.948-23.999-7.811-50.692-33.322-50.83l-260.748-1.414v243.04c0,31.412,32.806,51.074,60.172,36.361 c20.274-10.9,44.901-20.848,72.697-25.665c153.858-26.678,133.217,167.566,54.011,246.413 c-40.523,40.338-88.457,27.864-125.851,5.802c-27.496-16.221-62.419,3.849-62.419,36.411v267.194l249.995-7.056 c27.986-0.79,45.392-31.589,32.585-56.693c-14.76-28.938-28.269-68.236-28.269-115.074 c0-103.397,135.334-130.261,178.665-134.272c39.161-3.623,194.273,66.934,98.371,241.323 c-13.932,25.334,3.419,56.116,31.208,55.333l271.083-7.645C1813.56,2209.529,1723.582,2110.331,1692.055,1939.618z"></path> </g> <g style="opacity:0.3;"> <linearGradient id="SVGID_00000090262344025091621890000014599788190162363556_" gradientUnits="userSpaceOnUse" x1="3521.9724" y1="379.976" x2="826.9417" y2="5062.8242"> <stop offset="0" style="stop-color:#FFC444"></stop> <stop offset="0.9964" style="stop-color:#F36F56"></stop> </linearGradient> <path style="fill:url(#SVGID_00000090262344025091621890000014599788190162363556_);" d="M1927.718,2307.367v255.304 c0,19.836,19.938,32.354,36.689,22.585c24.187-14.104,60.522-27.305,109.642-24.383 c98.579,5.861,154.572,89.719,118.898,161.106c-68.787,137.636-159.409,106.064-210.703,71.433 c-16.795-11.337-39.677,2.68-39.677,24.159v299.567l507.659-32.144c-23.218-139.367-64.932-248.67-110.353-334.94 C2222.953,2527.99,2061.905,2421.539,1927.718,2307.367z"></path> </g> </g> <path style="fill:#26264F;" d="M2256.921,1384.99c-28.879-18.087-70.282-37.15-111.686-32.552 c-75.278,8.366-108.735,123.822-66.912,225.014c29.871,72.279,128.021,41.302,181.67,17.701 c16.877-7.424,35.799,5.178,35.799,23.616v260.616h293.555c25.632,0,42.117-27.129,30.255-49.853 c-14.213-27.227-29.296-63.026-35.244-100.705c-12.546-79.458,75.278-158.919,158.923-150.556 c83.64,8.366,146.371,87.825,142.19,171.468c-1.446,28.927-13.542,53-28.75,72.117c-17.506,22.009-0.842,54.581,27.284,54.581 h256.575v-275.696c0-15.193,0-205.825,0-219.667v-267.018h-265.404c-28.143,0-44.696,32.529-27.268,54.625 c18.162,23.025,34.238,52.654,37.564,87.568c8.365,87.825-75.278,138.01-142.19,155.228 c-66.916,17.221-163.103-59.04-150.557-138.499c6.766-42.849,19.257-86.911,29.335-118.421 c7.057-22.07-9.582-44.528-32.751-44.384l-277.913-7.309l-15.602,9.117v251.072 C2295.792,1383.004,2273.829,1395.578,2256.921,1384.99z"></path> <linearGradient id="SVGID_00000130627029065978438590000006720801260402372272_" gradientUnits="userSpaceOnUse" x1="3460.6707" y1="315.2854" x2="-78.2465" y2="5885.1279"> <stop offset="0" style="stop-color:#FFC444"></stop> <stop offset="0.9964" style="stop-color:#F36F56"></stop> </linearGradient> <path style="fill:url(#SVGID_00000130627029065978438590000006720801260402372272_);" d="M2272.523,1375.872 c-28.879-18.087-70.282-37.15-111.686-32.552c-75.278,8.366-108.735,123.822-66.912,225.014 c29.87,72.279,128.021,41.302,181.67,17.701c16.877-7.424,35.799,5.178,35.799,23.616v260.616h293.555 c25.632,0,42.117-27.129,30.255-49.853c-14.213-27.226-29.296-63.026-35.244-100.705 c-12.546-79.458,75.278-158.919,158.923-150.556c83.64,8.366,146.371,87.825,142.19,171.468c-1.446,28.927-13.542,53-28.75,72.117 c-17.506,22.009-0.841,54.581,27.284,54.581h256.575V1104.94h-265.404c-28.144,0-44.696,32.529-27.268,54.625 c18.162,23.025,34.237,52.654,37.563,87.568c8.366,87.825-75.278,138.01-142.19,155.228 c-66.916,17.221-163.103-59.04-150.557-138.499c6.766-42.849,19.257-86.911,29.335-118.421 c7.057-22.07-9.582-44.528-32.751-44.384l-293.515,1.808v251.072C2311.394,1373.886,2289.43,1386.461,2272.523,1375.872z"></path> <g> <linearGradient id="SVGID_00000177453135084373708770000002059072229761334423_" gradientUnits="userSpaceOnUse" x1="6599.9058" y1="3302.5273" x2="6634.9502" y2="3420.8015" gradientTransform="matrix(-0.6274 -0.7787 -0.7787 0.6274 7764.2109 4612.6113)"> <stop offset="0" style="stop-color:#FFC444"></stop> <stop offset="0.9964" style="stop-color:#F36F56"></stop> </linearGradient> <path style="fill:url(#SVGID_00000177453135084373708770000002059072229761334423_);" d="M1100.938,1564.804l10.928-17.217 l1.973-67.61c0,0-18.462,13.467-15.015,28.139c3.446,14.672,3.261,30.753,3.261,30.753l-8.874,16.345L1100.938,1564.804z"></path> <linearGradient id="SVGID_00000011712165980701386760000001819114250732127105_" gradientUnits="userSpaceOnUse" x1="904.8113" y1="1657.3065" x2="983.61" y2="1901.208"> <stop offset="0" style="stop-color:#FF9085"></stop> <stop offset="1" style="stop-color:#FB6FBB"></stop> </linearGradient> <path style="fill:url(#SVGID_00000011712165980701386760000001819114250732127105_);" d="M784.539,2008.052 c0,0,117.957-219.468,204.736-330.231c86.778-110.764,102.529-128.023,102.529-128.023l16.617,14.708 c0,0-63.524,386.304-92.492,427.995C986.96,2034.19,784.539,2008.052,784.539,2008.052z"></path> <linearGradient id="SVGID_00000113319172981925580690000005379189225714980505_" gradientUnits="userSpaceOnUse" x1="904.8111" y1="1657.3073" x2="983.6096" y2="1901.208"> <stop offset="0" style="stop-color:#FF9085"></stop> <stop offset="1" style="stop-color:#FB6FBB"></stop> </linearGradient> <path style="opacity:0.3;fill:url(#SVGID_00000113319172981925580690000005379189225714980505_);" d="M784.539,2008.052 c21.165-35.085,57.143-88.259,112.733-142.973c65.077-64.052,84.838-59.163,119.856-108.624 c61.502-86.868,74.676-206.655,74.676-206.657l16.615,14.707c0,0-63.523,386.304-92.49,427.994 C986.959,2034.19,784.539,2008.052,784.539,2008.052z"></path> <linearGradient id="SVGID_00000041274500008514921460000011450982184623388064_" gradientUnits="userSpaceOnUse" x1="6673.5669" y1="3126.8689" x2="6706.1665" y2="3278.5286" gradientTransform="matrix(-1 0 0 1 7355.7188 0)"> <stop offset="0" style="stop-color:#FFC444"></stop> <stop offset="0.9964" style="stop-color:#F36F56"></stop> </linearGradient> <polygon style="fill:url(#SVGID_00000041274500008514921460000011450982184623388064_);" points="685.002,3189.771 684.016,3155.08 660.935,3149.409 669.626,3189.771 "></polygon> <linearGradient id="SVGID_00000127030789118548069100000001305344603445887927_" gradientUnits="userSpaceOnUse" x1="6574.856" y1="3148.0864" x2="6607.4565" y2="3299.7502" gradientTransform="matrix(-1 0 0 1 7355.7188 0)"> <stop offset="0" style="stop-color:#FFC444"></stop> <stop offset="0.9964" style="stop-color:#F36F56"></stop> </linearGradient> <path style="fill:url(#SVGID_00000127030789118548069100000001305344603445887927_);" d="M795.086,3161.835l-19.337,18.216 c0,0-13.137-0.803-16.979-9.108l16.979-27.391L795.086,3161.835z"></path> <path style="fill:#26264F;" d="M741.698,2436.932c-4.845,31.864-13.37,80.576-28.348,138.905 c-45.879,178.664-97.248,233.09-107.722,340.175c-5.599,57.25-0.664,141.363,53.044,248.77 c10.775,0.559,21.549,1.112,32.323,1.673c6.851-61.286,17.335-126.968,32.852-196.099 c41.438-184.626,106.217-337.954,169.341-457.27C842.692,2487.698,792.195,2462.318,741.698,2436.932z"></path> <linearGradient id="SVGID_00000089532195457799575810000011707377506753395134_" gradientUnits="userSpaceOnUse" x1="6647.5234" y1="3161.8572" x2="6657.4448" y2="3234.1426" gradientTransform="matrix(-1 0 0 1 7355.7188 0)"> <stop offset="0" style="stop-color:#311944"></stop> <stop offset="1" style="stop-color:#893976"></stop> </linearGradient> <path style="fill:url(#SVGID_00000089532195457799575810000011707377506753395134_);" d="M739.349,3203.865l-50.397-17.877 h-22.695l-3.404,15.293c-1.322,5.942,2.646,11.779,8.667,12.682C696.407,3217.698,753.477,3224.316,739.349,3203.865z"></path> <linearGradient id="SVGID_00000062895737029599013250000003023996441892267442_" gradientUnits="userSpaceOnUse" x1="6565.1113" y1="3173.1675" x2="6575.0332" y2="3245.4546" gradientTransform="matrix(-1 0 0 1 7355.7188 0)"> <stop offset="0" style="stop-color:#311944"></stop> <stop offset="1" style="stop-color:#893976"></stop> </linearGradient> <path style="fill:url(#SVGID_00000062895737029599013250000003023996441892267442_);" d="M760.815,3167.704 c-9.701,6.019-12.212,11.245-12.302,15.248c-0.145,6.428,5.985,8.068,12.556,19.373c7.446,12.812,3.976,18.276,10.394,23.149 c2.372,1.8,5.266,2.89,25.021,2.281c18.237-0.559,27.366-0.891,27.885-3.223c0.345-1.55-1.698-5.403-26.92-15.121 c-6.281-10.868-12.563-21.731-18.843-32.6L760.815,3167.704z"></path> <path style="opacity:0.3;fill:#26264F;" d="M636.811,2942.941c16.537-39.515,57.102-31.381,75.122-77.957 c13.636-35.241-6.126-48.844-2.835-100.635c4.483-70.515,43.714-86.189,46.774-138.905c1.362-23.447-4.495-54.514-32.2-92.612 c8.789-39.272,14.428-72.243,18.026-95.902c50.497,25.386,100.994,50.766,151.49,76.153 c-63.124,119.315-127.903,272.643-169.341,457.27c-15.516,69.131-26.001,134.813-32.852,196.099 c-10.774-0.56-21.549-1.114-32.323-1.673c-2.514-5.028-4.816-9.949-7.12-14.877c6.533-9.202,11.954-19.473,15.024-31.205 C684.309,3050.93,612.802,3000.313,636.811,2942.941z"></path> <path style="fill:#26264F;" d="M990.613,2490.904c26.543,103.447,24.93,189.698,19.892,243.953 c-5.041,54.287-21.264,207.387-132.737,348.407c-30.891,39.078-61.184,67.222-82.209,85.043 c-9.449-8.034-18.899-16.062-28.348-24.096c22.203-41.442,49.193-100.839,67.999-175.767 c17.401-69.336,33.543-133.657,20.077-216.734c-15.054-92.872-61.844-176.698-65.398-182.961 c-18.704-32.965-37.956-58.733-34.017-94.965c3.648-33.563,26.134-66.335,53.861-79.374 C859.846,2370.852,942.591,2404.476,990.613,2490.904z"></path> <linearGradient id="SVGID_00000121980479987314145230000015559191468429426339_" gradientUnits="userSpaceOnUse" x1="6326.8545" y1="1842.186" x2="6472.7896" y2="2003.2987" gradientTransform="matrix(-1 0 0 1 7355.7188 0)"> <stop offset="0" style="stop-color:#FFC444"></stop> <stop offset="0.9964" style="stop-color:#F36F56"></stop> </linearGradient> <path style="fill:url(#SVGID_00000121980479987314145230000015559191468429426339_);" d="M975.573,1855.8l-0.838,12.203 c-0.718,10.445-8.431,19.071-18.731,20.948l-58.392,11.734l115.874,44.884l-11.146-32.272c-2.564-7.424-3.41-15.332-2.473-23.128 l2.887-24.041L975.573,1855.8z"></path> <g> <g> <linearGradient id="SVGID_00000096742258337438176630000008011311566332355257_" gradientUnits="userSpaceOnUse" x1="6352.0947" y1="1828.3966" x2="6470.2104" y2="1958.7968" gradientTransform="matrix(-1 0 0 1 7355.7188 0)"> <stop offset="0" style="stop-color:#FFC444"></stop> <stop offset="0.9964" style="stop-color:#F36F56"></stop> </linearGradient> <path style="fill:url(#SVGID_00000096742258337438176630000008011311566332355257_);" d="M996.506,1874.319 c2.567-1.407,23.423-3.942,26.298-15.157c3.903-15.225-9.78-33.756-11.484-36.738c-7.138-12.484-8.932-14.171-12.25-16.285 l-4.607-2.701c0,0-0.265-0.1-0.544-0.192c-2.94-0.972-12.885-1.05-14.888-0.574c-6.4,1.519-12.656,27.875-9.864,64.876 c-0.236,1.417-0.46,2.846-0.677,4.287C967.928,1875.581,996.694,1875.639,996.506,1874.319z"></path> <path style="fill:#26264F;" d="M1016.122,1801.085c-2.404,6.984-11.931,14.197-16.186,17.418 c-0.625,0.472-2.423,2.065-4.054,4.633c-0.237,0.374-0.443,0.81-0.624,1.371c-2.351,7.289,9.341,15.539,7.194,18.829 c-1.557,2.386-9.443-0.579-10.326,1.469c-0.832,1.929,5.752,5.735,4.809,8.043c-0.711,1.745-4.745,0.255-7.205,2.957 c-1.227,1.345-0.833,2.38-2.074,6.436c-0.702,2.294-1.699,4.811-2.483,6.215c-3.815,6.827-14.992,9.543-17.214,6.896 c-0.619-0.739-0.116-1.381-0.788-3.889c0,0-0.622-2.324-2.311-4.99c-2.41-3.809-8.082-6.443-13.833-10.392 c-10.653-7.309-13.647-13.677-14.551-15.833c-0.101-0.24-0.191-0.463-0.27-0.667c-0.153-0.365-0.286-0.731-0.399-1.099 c-2.407-7.791,3.755-16.187,7.077-20.1c4.755-5.547,12.758-13.783,24.487-21.117c3.192-1.996,34.226-21.153,45.605-11.683 C1017.04,1788.966,1017.755,1796.341,1016.122,1801.085z"></path> <linearGradient id="SVGID_00000160868907368477630970000002303709037474227895_" gradientUnits="userSpaceOnUse" x1="6346.2686" y1="1833.6727" x2="6464.3867" y2="1964.0753" gradientTransform="matrix(-1 0 0 1 7355.7188 0)"> <stop offset="0" style="stop-color:#FFC444"></stop> <stop offset="0.9964" style="stop-color:#F36F56"></stop> </linearGradient> <path style="fill:url(#SVGID_00000160868907368477630970000002303709037474227895_);" d="M998.267,1840.731 c-2.901-3.801-7.762-0.058-7.677,4.944c0.084,5.001,5.047,10.09,9.724,8.996 C1004.995,1853.578,1002.17,1845.849,998.267,1840.731z"></path> </g> </g> <linearGradient id="SVGID_00000161615809251458022200000009097826101848484538_" gradientUnits="userSpaceOnUse" x1="5967.8643" y1="1540.6422" x2="6006.0815" y2="1669.6244" gradientTransform="matrix(-1 0 0 1 7355.7188 0)"> <stop offset="0" style="stop-color:#FFC444"></stop> <stop offset="0.9964" style="stop-color:#F36F56"></stop> </linearGradient> <path style="fill:url(#SVGID_00000161615809251458022200000009097826101848484538_);" d="M1406.993,1598.071l-6.026-25.843 l-47.174-38.648c0,0-3.341,17.658,8.36,25.027c11.701,7.368,25.482,12.463,26.741,19.314c1.804,9.829,4.507,16.581,4.507,16.581 L1406.993,1598.071z"></path> <linearGradient id="SVGID_00000046318604185473023740000013316437691654877839_" gradientUnits="userSpaceOnUse" x1="1242.1517" y1="1725.0552" x2="862.9072" y2="2310.1755"> <stop offset="0" style="stop-color:#FF9085"></stop> <stop offset="1" style="stop-color:#FB6FBB"></stop> </linearGradient> <path style="fill:url(#SVGID_00000046318604185473023740000013316437691654877839_);" d="M1416.162,1592.802 c-12.069-4.092-24.14-8.178-36.209-12.269c-11.759,42.66-34.109,99.981-78.176,156.582 c-15.007,19.279-87.04,108.486-210.316,148.473c-56.387,18.288-103.194,19.699-112.975,19.909 c-50.659,1.102-66.595-9.029-90.796-8.593c-93.736,1.69-184.871,159.585-209.774,290.566 c-25.105,132.046,16.019,242.43,41.104,296.235c39.883,26.095,109.732,63.418,202.687,72.287 c35.304,3.372,67.026,1.977,93.827-1.312c-0.602-26.387-0.115-64.038,5.206-108.78c5.873-49.392,21.967-174.206,97.479-292.531 c44.664-69.99,49.354-42.494,145.08-160.083c68.724-84.418,114.274-141.496,138.905-226.783 C1422.693,1695.557,1420.657,1632.954,1416.162,1592.802z"></path> <linearGradient id="SVGID_00000096050830973749228120000018215124879652070838_" gradientUnits="userSpaceOnUse" x1="6449.7705" y1="1471.7474" x2="6291.0229" y2="1963.111" gradientTransform="matrix(-1 0 0 1 7355.7188 0)"> <stop offset="0" style="stop-color:#FF9085"></stop> <stop offset="1" style="stop-color:#FB6FBB"></stop> </linearGradient> <path style="opacity:0.3;fill:url(#SVGID_00000096050830973749228120000018215124879652070838_);" d="M839.971,2449.218 c18.931-39.305,4.174-66.971,32.127-111.503c31.077-49.503,65.211-40.634,109.612-85.044 c65.074-65.089,23.834-116.232,83.153-183.314c54.571-61.712,105.5-36.553,158.748-105.834 c29.564-38.464,15.033-47.737,47.247-113.392c53.043-108.104,109.597-117.92,130.34-192.466 c4.798-17.241,8.118-39.804,5.306-68.135c3.219,1.091,6.438,2.182,9.657,3.272c4.495,40.152,6.531,102.755-13.958,173.702 c-24.631,85.287-70.181,142.365-138.905,226.783c-95.726,117.589-100.416,90.093-145.08,160.083 c-75.512,118.325-91.607,243.139-97.479,292.531c-5.32,44.742-5.808,82.393-5.206,108.78 c-26.802,3.288-58.524,4.684-93.827,1.312c-60.592-5.78-111.288-23.658-150.343-42.632 C810.466,2493.567,829.887,2470.152,839.971,2449.218z"></path> </g> <g> <linearGradient id="SVGID_00000044892245388906373090000001807793771170255776_" gradientUnits="userSpaceOnUse" x1="3153.0637" y1="1957.8859" x2="3186.9966" y2="2199.0535" gradientTransform="matrix(0.9977 0.0677 -0.0677 0.9977 140.8456 -248.989)"> <stop offset="0" style="stop-color:#FFC444"></stop> <stop offset="0.9964" style="stop-color:#F36F56"></stop> </linearGradient> <path style="fill:url(#SVGID_00000044892245388906373090000001807793771170255776_);" d="M3134.686,1938.832l3.142-46.283 c0,0-5.982-10.332-7.816-35.031c-1.835-24.698,3.855-14.569,6.28-4.181c0.676,2.896,2.313,5.425,4.322,7.567 c5.049,5.383,14.128,2.702,15.665-4.516l6.46-30.349c0,0,16.54,19.378,0.594,63.961c-4.991,13.956-3.296,48.56-3.296,48.56 L3134.686,1938.832z"></path> <linearGradient id="SVGID_00000046314743941392875470000009517280017216862887_" gradientUnits="userSpaceOnUse" x1="2319.0259" y1="2075.2209" x2="2352.9585" y2="2316.3857" gradientTransform="matrix(0.9977 0.0677 -0.0677 0.9977 140.8456 -248.989)"> <stop offset="0" style="stop-color:#FFC444"></stop> <stop offset="0.9964" style="stop-color:#F36F56"></stop> </linearGradient> <path style="fill:url(#SVGID_00000046314743941392875470000009517280017216862887_);" d="M2321.652,1920.653l-8.601-45.856 c0,0,12.384-16.529,8.201-34.547c-4.184-18.018-1.375-11.511-6.485-0.44c-5.11,11.071-12.373-8.755-17.876-26.742 c-5.503-17.986-10.765,8.732-10.218,24.835c0.547,16.103,0.504,25.661,9.263,37.978c8.759,12.318,4.028,53.687,4.028,53.687 L2321.652,1920.653z"></path> <path style="fill:#26264F;" d="M2899.144,3206.156c1.046-9.905,24.839-6.284,40.416-3.717 c15.578,2.567,22.056,9.329,24.107,15.374c2.051,6.043-0.773,20.428-14.846,13.363 C2937.27,3225.378,2898.218,3214.91,2899.144,3206.156z"></path> <linearGradient id="SVGID_00000168105877793648458040000000406462006318023566_" gradientUnits="userSpaceOnUse" x1="3001.4326" y1="3151.2551" x2="3052.7112" y2="3303.8706" gradientTransform="matrix(0.9977 0.0677 -0.0677 0.9977 140.8456 -248.989)"> <stop offset="0" style="stop-color:#FFC444"></stop> <stop offset="0.9964" style="stop-color:#F36F56"></stop> </linearGradient> <path style="fill:url(#SVGID_00000168105877793648458040000000406462006318023566_);" d="M2930.581,3169.646l8.542,39.224 c0,0,10.64,8.423,14.565,4.858l-1.145-44.615L2930.581,3169.646z"></path> <linearGradient id="SVGID_00000178886225875945972060000005883712883282800262_" gradientUnits="userSpaceOnUse" x1="2935.7568" y1="3173.8772" x2="2986.6567" y2="3325.3655" gradientTransform="matrix(0.9977 0.0677 -0.0677 0.9977 140.8456 -248.989)"> <stop offset="0" style="stop-color:#FFC444"></stop> <stop offset="0.9964" style="stop-color:#F36F56"></stop> </linearGradient> <polygon style="fill:url(#SVGID_00000178886225875945972060000005883712883282800262_);" points="2853.331,3141.536 2889.172,3160.154 2881.703,3178.422 2845.368,3166.291 "></polygon> <path style="fill:#26264F;" d="M2846.305,3213.925c0,0,24.179,8.037,36.052-5.767c7.635-8.875,14.539-24.363,18.494-34.289 c2.148-5.39-0.238-11.498-5.469-14.007c-7.597-3.643-17.988-7.722-22.687-5.482c-7.862,3.746-2.685,32.539-6.499,39.694 C2862.382,3201.227,2845.969,3204.868,2846.305,3213.925z"></path> <linearGradient id="SVGID_00000139255574502894350730000000520706770331943300_" gradientUnits="userSpaceOnUse" x1="3142.9392" y1="3073" x2="2902.1792" y2="2801.5393" gradientTransform="matrix(0.9977 0.0677 -0.0677 0.9977 140.8456 -248.989)"> <stop offset="0" style="stop-color:#444B8C"></stop> <stop offset="0.9964" style="stop-color:#3E4177"></stop> </linearGradient> <path style="fill:url(#SVGID_00000139255574502894350730000000520706770331943300_);" d="M2832.911,2561.753 c-0.491,89.609,4.781,193.816,21.555,308.775c17.486,119.831,43.631,225.036,71.046,313.349 c3.104,1.753,8.669,4.363,16.095,5.082c8.692,0.842,15.527-1.336,18.969-2.702c9.164-45.585,14.911-84.199,18.596-112.917 c9.737-75.84,14.456-114.699,7.163-160.714c-6.844-43.179-14.891-40.392-21.857-88.076c-6.195-42.405-4.208-74.563-1.03-121.634 c2.182-32.321,6.625-75.871,16.385-127.245C2930.859,2571.033,2881.885,2566.393,2832.911,2561.753z"></path> <linearGradient id="SVGID_00000034781146590603913430000006570704839576538503_" gradientUnits="userSpaceOnUse" x1="3142.9392" y1="3072.9998" x2="2902.1792" y2="2801.5391" gradientTransform="matrix(0.9977 0.0677 -0.0677 0.9977 140.8456 -248.989)"> <stop offset="0" style="stop-color:#444B8C"></stop> <stop offset="0.9964" style="stop-color:#3E4177"></stop> </linearGradient> <path style="opacity:0.3;fill:url(#SVGID_00000034781146590603913430000006570704839576538503_);" d="M2932.483,3152.769 c-7.642-32.159,12.616-45.235,13.081-85.354c0.571-49.015-29.401-52.516-35.179-108.064 c-4.642-44.639,14.211-47.188,12.939-101.154c-1.35-57.354-23.02-70.435-15.997-104.333 c3.905-18.847,16.761-44.042,57.574-69.662c2.54-29.718,6.934-66.436,14.93-108.531c-48.974-4.638-97.947-9.279-146.922-13.918 c-0.491,89.609,4.781,193.816,21.555,308.775c17.486,119.831,43.631,225.036,71.046,313.349 c3.104,1.753,8.669,4.363,16.095,5.082c3.94,0.382,7.429,0.101,10.462-0.402 C2943.404,3178.933,2935.894,3167.121,2932.483,3152.769z"></path> <linearGradient id="SVGID_00000098933119433366992950000016308935569046195112_" gradientUnits="userSpaceOnUse" x1="2840.1775" y1="2918.2639" x2="2484.697" y2="2852.0156" gradientTransform="matrix(0.9977 0.0677 -0.0677 0.9977 140.8456 -248.989)"> <stop offset="0" style="stop-color:#444B8C"></stop> <stop offset="0.9964" style="stop-color:#3E4177"></stop> </linearGradient> <path style="fill:url(#SVGID_00000098933119433366992950000016308935569046195112_);" d="M2714.277,2537.91 c-3.245,21.383-8.959,53.701-19.141,92.29c-22.956,87.014-44.355,113.93-53.406,171.229 c-10.553,66.814,4.21,120.97,9.826,141.569c38.335,140.619,164.864,213.448,198.432,231.459 c4.771-12.416,9.544-24.832,14.314-37.248c-7.921-12.243-19.553-31.875-30.035-57.546 c-17.896-43.83-17.596-68.917-28.932-111.651c-20.45-77.099-40.603-67.746-42.667-106.435 c-3.269-61.314,47.468-82.536,99.621-195.797c14.945-32.455,24.263-59.997,29.516-76.95 C2832.63,2571.857,2773.454,2554.883,2714.277,2537.91z"></path> <linearGradient id="SVGID_00000106129561814024171030000017820395183611991938_" gradientUnits="userSpaceOnUse" x1="2669.9939" y1="1818.318" x2="2891.3674" y2="2631.1003" gradientTransform="matrix(0.9977 0.0677 -0.0677 0.9977 140.8456 -248.989)"> <stop offset="0" style="stop-color:#FF9085"></stop> <stop offset="1" style="stop-color:#FB6FBB"></stop> </linearGradient> <path style="fill:url(#SVGID_00000106129561814024171030000017820395183611991938_);" d="M3127.922,1919.781 c12.631-1.167,25.262-2.335,37.892-3.501c14.19,23.128,54.654,95.939,39.435,188.521c-3.606,21.942-17.697,94.599-83.598,148.691 c-47.186,38.732-97.385,48.503-120.289,51.492c-7.406,108.525-9.997,177.102-9.047,218.316c0.115,4.969,1.149,46.673-8.086,99.74 c-2.814,16.171-4.272,24.345-6.806,28.69c-35.153,60.298-209.052-1.182-255.527-25.123 c-12.084-6.225-24.221-14.567-28.732-28.182c-5.795-17.494,1.915-32.472,5.537-45.782c8.893-32.683-9.106-59.031-44.242-125.993 c-14.857-28.315-36.341-70.768-61.072-125.665c-33.437,7.341-111.872,19.237-185.068-21.984 c-107.554-60.571-161.015-211.734-117.878-368.692c11.504-2.458,23.008-4.917,34.511-7.375 c5.373,31.391,16.95,73.955,43.602,117.901c16.171,26.662,29.637,48.866,54.691,62.469c39.34,21.36,76.681,4.918,130.276-4.519 c84.452-14.868,153.383-2.503,237.118,12.521c91.48,16.413,115.456,37.06,183.71,28.905 c30.358-3.626,68.395-8.657,101.138-36.365C3139.901,2029.34,3129.544,1933.017,3127.922,1919.781z"></path> <linearGradient id="SVGID_00000183957379609023922340000005028633912577718460_" gradientUnits="userSpaceOnUse" x1="2771.1833" y1="2131.8774" x2="2811.1763" y2="2249.8357" gradientTransform="matrix(0.9977 0.0677 -0.0677 0.9977 140.8456 -248.989)"> <stop offset="0" style="stop-color:#FFC444"></stop> <stop offset="0.9964" style="stop-color:#F36F56"></stop> </linearGradient> <path style="fill:url(#SVGID_00000183957379609023922340000005028633912577718460_);" d="M2775.33,2017.683 c0,0-7.028,21.749,0.084,32.192c7.112,10.443,30.528,50.209,38.866,52.64c4.75,1.385,16.707,4.033,26.116,6.056 c4.954,1.064,5.548,8.022,0.774,9.719c-9.731,3.461-26.68,6.457-55.283,4.204c-41.343-3.255-73.554-21.257-87.509-30.397 c-1.982-1.299-0.794-4.358,1.551-4.021l18.524,2.664c15.865,2.282,29.896-10.421,29.199-26.434l-0.454-10.429L2775.33,2017.683z"></path> <g> <g> <linearGradient id="SVGID_00000150791013592660339090000009707911068468883118_" gradientUnits="userSpaceOnUse" x1="2760.4941" y1="3598.2429" x2="2800.4866" y2="3716.1997" gradientTransform="matrix(0.9977 0.0677 -0.0677 0.9977 654.2445 -214.142)"> <stop offset="0" style="stop-color:#FFC444"></stop> <stop offset="0.9964" style="stop-color:#F36F56"></stop> </linearGradient> <path style="fill:url(#SVGID_00000150791013592660339090000009707911068468883118_);" d="M2755.231,2061.061 c-2.464-1.579-23.092-5.518-25.199-16.898c-2.863-15.447,12.038-33,13.939-35.859c7.962-11.966,9.866-13.526,13.319-15.411 l4.775-2.38c0,0,0.273-0.083,0.557-0.156c2.998-0.77,12.92-0.174,14.885,0.435c6.28,1.948,10.735,28.656,5.447,65.366 c0.138,1.429,0.266,2.869,0.384,4.321C2783.647,2064.252,2754.954,2062.364,2755.231,2061.061z"></path> <path style="fill:#26264F;" d="M2740.626,1986.699c-1.208,4.449,10.123,14.24,14.964,18.464 c0.589,0.514,2.275,2.225,3.728,4.896c0.212,0.389,0.388,0.838,0.53,1.409c1.85,7.428-10.368,14.866-8.45,18.29 c1.391,2.486,9.457,0.063,10.198,2.165c0.699,1.979-6.124,5.33-5.34,7.697c0.591,1.786,4.715,0.574,6.986,3.437 c1.131,1.422,0.67,2.43,1.632,6.559c0.545,2.333,1.369,4.911,2.056,6.365c3.342,7.067,14.304,10.532,16.7,8.042 c0.668-0.694,0.209-1.368,1.049-3.823c0,0,0.779-2.277,2.642-4.819c2.662-3.637,8.497-5.881,14.499-9.429 c11.117-6.568,14.535-12.716,15.583-14.804c0.118-0.234,0.222-0.45,0.314-0.648c0.179-0.353,0.335-0.71,0.472-1.068 c2.741-7.171-5.695-20.524-5.695-20.524c-6.781-10.545-15.749-17.923-22.991-22.717c-13.594-3.647-24.837-4.066-32.665-3.734 C2750.462,1982.728,2741.582,1983.176,2740.626,1986.699z"></path> <path style="fill:#26264F;" d="M2733.753,2024.392c0,0,8.092,11.169,20.59-0.736l5.63,2.086c0,0-16.144,29.949-19.148,29.745 c-3.004-0.204-11.64-2.798-11.64-2.798c-3.194-1.6-4.808-5.249-3.815-8.681 C2727.179,2037.75,2731.417,2028.731,2733.753,2024.392z"></path> <linearGradient id="SVGID_00000170240892537926195560000010191699207525623223_" gradientUnits="userSpaceOnUse" x1="3622.9124" y1="4312.3179" x2="3725.9207" y2="4478.3433" gradientTransform="matrix(0.9977 0.0677 -0.0677 0.9977 654.2445 -214.142)"> <stop offset="0" style="stop-color:#FFC444"></stop> <stop offset="0.9964" style="stop-color:#F36F56"></stop> </linearGradient> <path style="fill:url(#SVGID_00000170240892537926195560000010191699207525623223_);" d="M2756.886,2027.523 c3.149-3.595,7.743,0.466,7.322,5.449c-0.423,4.981-5.716,9.721-10.307,8.312 C2749.308,2039.878,2752.649,2032.361,2756.886,2027.523z"></path> </g> </g> <linearGradient id="SVGID_00000030463597634687596200000000543852725932648107_" gradientUnits="userSpaceOnUse" x1="2513.9678" y1="1860.8085" x2="2735.343" y2="2673.5979" gradientTransform="matrix(0.9977 0.0677 -0.0677 0.9977 140.8456 -248.989)"> <stop offset="0" style="stop-color:#FF9085"></stop> <stop offset="1" style="stop-color:#FB6FBB"></stop> </linearGradient> <path style="opacity:0.3;fill:url(#SVGID_00000030463597634687596200000000543852725932648107_);" d="M2931.499,2630.394 c-61.484,17.085-129.369-18.605-143.981-62.004c-10.801-32.082,18.825-59.976,1.483-93.429 c-16.699-32.214-51.591-20.657-72.891-53.534c-23.213-35.83,8.879-63.996-10.668-111.26 c-14.706-35.557-53.409-69.286-93.506-71.939c-47.66-3.154-68.436,39.508-108.781,27.842 c-21.075-6.092-19.701-18.976-48.156-42.138c-49.382-40.197-85.208-27.195-126.173-55.936 c-12.037-8.447-25.255-21.042-37.016-40.645c21.12,66.545,61.792,120.834,116.51,151.65 c73.196,41.221,151.631,29.325,185.068,21.984c24.731,54.897,46.215,97.35,61.072,125.665 c35.136,66.962,53.135,93.31,44.242,125.993c-3.621,13.31-11.331,28.288-5.537,45.782c4.511,13.615,16.648,21.957,28.732,28.182 c46.475,23.941,220.374,85.421,255.527,25.123c2.534-4.345,3.992-12.519,6.806-28.69c1.753-10.073,3.134-19.732,4.223-28.813 C2975.018,2609.23,2956.524,2623.44,2931.499,2630.394z"></path> </g> </g> </g> </svg>